<?xml version="1.0" encoding="UTF-8"?><svg id="Aquarius" xmlns="http://www.w3.org/2000/svg" viewBox="0 0 50 50"><defs><style>.cls-1{fill:#fff;fill-rule:evenodd;}</style></defs><g id="Sign"><path class="cls-1" d="m13.3328,23.9343l2.8742-4.4601,2.8747,4.4601c.5414.8401,1.6628,1.0827,2.5029.5414s1.0827-1.6632.5409-2.5029l-4.3964-6.8223c-.3331-.5171-.9064-.8299-1.5221-.8299-.6153,0-1.1885.3128-1.5221.8299l-4.3964,6.8223c-.5414.8397-.2987,1.9615.5414,2.5029s1.9615.2987,2.5029-.5414"/><path class="cls-1" d="m22.1255,23.9343l2.8747-4.4601,2.8742,4.4601c.5414.8401,1.6628,1.0827,2.5029.5414s1.0827-1.6632.5414-2.5029l-4.3964-6.8223c-.3336-.5171-.9068-.8299-1.5221-.8299s-1.189.3128-1.5221.8299l-4.3964,6.8223c-.5414.8397-.2992,1.9615.5409,2.5029s1.9615.2987,2.5029-.5414"/><path class="cls-1" d="m30.9186,23.9343l2.8742-4.4601,2.8747,4.4601c.5409.8401,1.6628,1.0827,2.5024.5414.8409-.5414,1.0823-1.6632.5418-2.5029l-4.3968-6.8223c-.3331-.5171-.9068-.8299-1.5221-.8299s-1.1885.3128-1.5221.8299l-4.3964,6.8223c-.5414.8397-.2987,1.9615.5414,2.5029.8397.5414,1.9615.2987,2.5029-.5414"/><path class="cls-1" d="m13.3328,34.8495l2.8742-4.4601,2.8747,4.4601c.5414.8401,1.6628,1.0827,2.5029.5414s1.0827-1.6628.5409-2.5029l-4.3964-6.8223c-.3331-.5171-.9064-.8299-1.5221-.8299-.6153,0-1.1885.3128-1.5221.8299l-4.3964,6.8223c-.5414.8401-.2987,1.9615.5414,2.5029s1.9615.2987,2.5029-.5414"/><path class="cls-1" d="m22.1255,34.8495l2.8747-4.4601,2.8742,4.4601c.5414.8401,1.6628,1.0827,2.5029.5414s1.0827-1.6628.5414-2.5029l-4.3964-6.8223c-.3336-.5171-.9068-.8299-1.5221-.8299s-1.189.3128-1.5221.8299l-4.3964,6.8223c-.5414.8401-.2992,1.9615.5409,2.5029s1.9615.2987,2.5029-.5414"/><path class="cls-1" d="m30.9186,34.8495l2.8742-4.4601,2.8747,4.4601c.5409.8401,1.6628,1.0827,2.5024.5414.8409-.5414,1.0823-1.6628.5418-2.5029l-4.3968-6.8223c-.3331-.5171-.9068-.8299-1.5221-.8299s-1.1885.3128-1.5221.8299l-4.3964,6.8223c-.5414.8401-.2987,1.9615.5414,2.5029.8397.5414,1.9615.2987,2.5029-.5414"/></g></svg>