<?xml version="1.0" encoding="UTF-8"?>
<svg id="Aquarius" xmlns="http://www.w3.org/2000/svg" viewBox="0 0 50 50">
  <g id="Sign">
    <path class="cls-1" d="m48.6192,24.1332c-1.4001.9001-3.267.4834-4.1671-.9167l-4.8005-7.4342-4.6505,7.2175-.1334.2167c-.0666.1167-.15.2167-.2333.3167-.0834.1-.1834.2-.2668.2833-.1.0833-.2.1667-.3.2334-.0334.0334-.0666.0666-.1.0833-.0666.0501-.1501.0833-.2167.1167-.1.05-.2.1-.3.1501-.0334,0-.0501.0166-.0666.0333-.2001.0667-.4001.1167-.6168.1501h-.0166c-.1167.0167-.2334.0333-.3501.0333h-.1334c-.1167,0-.2334-.0166-.35-.0333h-.0167c-.2167-.0334-.4167-.0833-.6167-.1501-.0167-.0167-.0501-.0167-.0667-.0333-.1-.0501-.2-.1001-.3-.1501-.0666-.0334-.15-.0666-.2167-.1167-.3833-.2501-.6834-.5667-.9167-.9167l-4.7839-7.4342-4.7839,7.4342c-.3.4501-.6835.8001-1.1334,1.0334-.1.05-.2.1-.3.1501-.0167,0-.0501.0166-.0667.0333-.2.0667-.4.1167-.6167.1501h-.0167c-.1166.0167-.2333.0333-.35.0333h-.1334c-.1167,0-.2334-.0166-.3501-.0333h-.0166c-.2167-.0334-.4167-.0833-.6168-.1501-.0166-.0167-.05-.0167-.0666-.0333-.1-.0501-.2-.1001-.3-.1501-.0666-.0334-.1501-.0666-.2167-.1167-.0334-.0167-.0666-.05-.1-.0833-.1-.0666-.2-.1501-.3-.2334-.0833-.0833-.1833-.1833-.2668-.2833-.0833-.1-.1666-.2-.2333-.3167-.0501-.0666-.0833-.1334-.1334-.2167l-4.6505-7.2175-4.8005,7.4342c-.9002,1.4001-2.767,1.8168-4.1671.9167-1.4002-.9167-1.8002-2.7836-.9002-4.1838l7.3175-11.3679c.5668-.8667,1.5169-1.3834,2.5503-1.3834,1.0168,0,1.9836.5167,2.5335,1.3834l4.8005,7.4342,4.7839-7.4342c.5501-.8667,1.5002-1.3834,2.5336-1.3834s1.9836.5167,2.5336,1.3834l4.8005,7.4342,4.7839-7.4342c.55-.8667,1.5168-1.3834,2.5335-1.3834,1.0334,0,1.9836.5167,2.5336,1.3834l7.3342,11.3679c.9001,1.4002.5,3.2671-.9002,4.1838Z"/>
    <path class="cls-1" d="m48.6192,42.3186c-1.4001.9001-3.267.5-4.1671-.9002l-4.8005-7.4341-4.6505,7.2174-.1334.2167c-.0666.1167-.15.2167-.2333.3167-.1001.1334-.2334.2501-.3501.3501-.1.0833-.2.1666-.3167.2334-.2501.1666-.5167.2833-.8001.3667-.1334.0334-.2668.0666-.4167.0833-.1334.0167-.2834.0334-.4167.0334-.1334,0-.2834-.0167-.4167-.0334-.1501-.0167-.2834-.05-.4167-.0833-.1501-.0501-.3001-.1-.4501-.1666-.1167-.0501-.2334-.1167-.3501-.2-.1167-.0667-.2167-.1501-.3167-.2334s-.2-.1833-.2833-.2668c-.0833-.1-.1666-.2-.2334-.3-.0333-.0333-.0666-.0666-.0833-.1l-4.7839-7.4341-4.7839,7.4341c-.0167.0334-.0501.0667-.0833.1-.0667.1-.1501.2-.2334.3-.0833.0834-.1833.1834-.2833.2668s-.2.1666-.3167.2334c-.1167.0833-.2334.15-.3501.2-.15.0666-.3.1166-.4501.1666-.1333.0334-.2667.0666-.4167.0833-.1333.0167-.2833.0334-.4167.0334-.1333,0-.2833-.0167-.4167-.0334-.15-.0167-.2833-.05-.4167-.0833-.2833-.0833-.55-.2-.8001-.3667-.1167-.0667-.2167-.1501-.3167-.2334-.1334-.1-.25-.2334-.3501-.3501-.0833-.1-.1666-.2-.2333-.3167-.0501-.0666-.0833-.1334-.1334-.2167l-4.6505-7.2174-4.8005,7.4341c-.9002,1.4002-2.767,1.8002-4.1671.9002-1.4002-.9002-1.8002-2.767-.9002-4.1671l7.3175-11.3679c.5668-.8668,1.5169-1.3835,2.5503-1.3835,1.0168,0,1.9836.5167,2.5335,1.3835l4.8005,7.4341,4.7839-7.4341c.5501-.8668,1.5002-1.3835,2.5336-1.3835s1.9836.5167,2.5336,1.3835l4.8005,7.4341,4.7839-7.4341c.55-.8668,1.5168-1.3835,2.5335-1.3835,1.0334,0,1.9836.5167,2.5336,1.3835l7.3342,11.3679c.9001,1.4001.5,3.267-.9002,4.1671Z"/>
  </g>
</svg>