<?xml version="1.0" encoding="UTF-8"?>
<svg id="Aquarius" xmlns="http://www.w3.org/2000/svg" viewBox="0 0 50 50">
    <g id="Sign">
        <path class="cls-1"
            d="m39.17,24.48c-.84.54-1.96.29-2.5-.55l-2.88-4.46-2.79,4.33-.08.13c-.04.07-.09.13-.14.19-.05.06-.11.12-.16.17-.06.05-.12.1-.18.14-.02.02-.04.04-.06.05-.04.03-.09.05-.13.07-.06.03-.12.06-.18.09-.02,0-.03.0099-.04.02-.1201.04-.2401.07-.3701.09h-.0099c-.07.01-.14.02-.21.02h-.08c-.07,0-.14-.0099-.21-.02h-.01c-.13-.02-.25-.05-.37-.09-.01-.01-.03-.01-.04-.02-.06-.03-.12-.0601-.18-.09-.04-.02-.09-.04-.13-.07-.23-.15-.41-.34-.55-.55l-2.87-4.46-2.87,4.46c-.18.27-.41.48-.68.62-.06.03-.12.06-.18.09-.01,0-.03.0099-.04.02-.12.04-.24.07-.37.09h-.01c-.0699.01-.14.02-.21.02h-.08c-.07,0-.14-.0099-.21-.02h-.0099c-.13-.02-.25-.05-.3701-.09-.0099-.01-.03-.01-.04-.02-.06-.03-.12-.0601-.18-.09-.04-.02-.09-.04-.13-.07-.02-.01-.04-.03-.06-.05-.06-.04-.12-.09-.18-.14-.05-.05-.11-.11-.16-.17-.05-.06-.1-.12-.14-.19-.03-.04-.05-.08-.08-.13l-2.79-4.33-2.88,4.46c-.54.84-1.66,1.09-2.5.55-.84-.55-1.08-1.67-.54-2.51l4.39-6.82c.34-.52.91-.83,1.53-.83.61,0,1.19.31,1.52.83l2.88,4.46,2.87-4.46c.33-.52.9-.83,1.52-.83s1.19.31,1.52.83l2.88,4.46,2.87-4.46c.33-.52.91-.83,1.52-.83.62,0,1.19.31,1.52.83l4.4,6.82c.54.84.3,1.96-.54,2.51Z" />
        <path class="cls-1"
            d="m39.17,35.39c-.84.54-1.96.3-2.5-.54l-2.88-4.46-2.79,4.33-.08.13c-.04.07-.09.13-.14.19-.0601.08-.14.15-.21.21-.06.05-.12.1-.19.14-.15.1-.31.17-.48.22-.08.02-.16.04-.25.05-.08.01-.17.02-.25.02-.08,0-.17-.01-.25-.02-.09-.01-.17-.03-.25-.05-.09-.03-.1801-.06-.27-.1-.07-.03-.14-.07-.21-.12-.07-.04-.13-.09-.19-.14s-.12-.11-.17-.16c-.05-.06-.1-.12-.14-.18-.02-.02-.04-.04-.05-.06l-2.87-4.46-2.87,4.46c-.01.02-.03.04-.05.06-.04.06-.09.12-.14.18-.05.05-.11.11-.17.16s-.12.1-.19.14c-.07.05-.14.09-.21.12-.09.04-.18.0699-.27.1-.08.02-.16.04-.25.05-.08.01-.17.02-.25.02-.08,0-.17-.01-.25-.02-.09-.01-.17-.03-.25-.05-.17-.05-.33-.12-.48-.22-.07-.04-.13-.09-.19-.14-.08-.06-.15-.14-.21-.21-.05-.06-.1-.12-.14-.19-.03-.04-.05-.08-.08-.13l-2.79-4.33-2.88,4.46c-.54.84-1.66,1.08-2.5.54-.84-.54-1.08-1.66-.54-2.5l4.39-6.82c.34-.52.91-.83,1.53-.83.61,0,1.19.31,1.52.83l2.88,4.46,2.87-4.46c.33-.52.9-.83,1.52-.83s1.19.31,1.52.83l2.88,4.46,2.87-4.46c.33-.52.91-.83,1.52-.83.62,0,1.19.31,1.52.83l4.4,6.82c.54.84.3,1.96-.54,2.5Z" />
    </g>
</svg>