<?xml version="1.0" encoding="UTF-8"?>
<svg id="Aries" xmlns="http://www.w3.org/2000/svg" viewBox="0 0 50 50">
    <g id="Sign">
        <path class="cls-1"
            d="m40,21.48c-.04.92-.82,1.63-1.73,1.59-.92-.04-1.63-.81-1.59-1.73,0,0,.05-1.14-.38-2.28-.33-.91-1.03-1.84-2.53-1.82-1.32.01-2.19.78-2.8,1.65-1.11,1.61-1.41,3.61-1.41,3.61-.01.03-.01.05-.02.08l-2.9,14.0601-.02.12c-.04.18-.1.35-.19.5-.03.05-.06.1-.11.15-.09.13-.2.25-.33.33-.05.05-.1.08-.15.11-.03.02-.06.04-.09.05-.06.03-.13.06-.2.08-.04.02-.09.03-.13.04-.03.01-.05.02-.08.03h-.04c-.2.04-.4.04-.6,0h-.04c-.0099,0-.0099-.01-.02-.01-.02,0-.04-.01-.06-.02-.05-.0099-.09-.02-.13-.04-.07-.02-.13-.05-.19-.08-.03-.0099-.07-.03-.1-.05-.05-.03-.1-.06-.15-.11-.13-.09-.25-.2-.33-.33-.05-.05-.08-.1-.11-.15-.09-.15-.16-.32-.19-.5l-.02-.12-2.9-14.0601c-.01-.03-.01-.05-.02-.08,0,0-.3-2-1.41-3.61-.61-.8701-1.48-1.64-2.8-1.65-1.5-.02-2.2.91-2.53,1.82-.43,1.14-.38,2.28-.38,2.28.04.92-.67,1.69-1.59,1.73-.91.04-1.69-.67-1.73-1.59,0,0-.08-1.79.58-3.58.75-2.02,2.35-4.0099,5.68-3.98,2.55.02,4.32,1.39,5.49,3.08,1.42,2.04,1.9,4.54,1.96,4.94l1.29,6.25,1.29-6.25c.06-.4.54-2.9,1.96-4.94,1.17-1.69,2.94-3.06,5.49-3.08,3.33-.03,4.93,1.96,5.68,3.98.66,1.79.58,3.58.58,3.58Z" />
    </g>
</svg>