<?xml version="1.0" encoding="UTF-8"?><svg id="Aries" xmlns="http://www.w3.org/2000/svg" viewBox="0 0 50 50"><defs><style>.cls-1{fill:#fff;fill-rule:evenodd;}</style></defs><g id="Sign"><path class="cls-1" d="m13.3191,21.3442s-.0448-1.1459.3782-2.2875c.3357-.9083,1.0349-1.8318,2.5344-1.8185,1.3173.0117,2.1909.7837,2.7958,1.653,1.1159,1.6063,1.4142,3.6047,1.4142,3.6047.0047.0296.0097.0588.016.0876l2.9184,14.1727c.1842.8974,1.0629,1.4754,1.9591,1.2912.8974-.1846,1.4758-1.0629,1.2912-1.9603l-2.9114-14.1447c-.0689-.3988-.5414-2.9005-1.9622-4.9446-1.1716-1.6873-2.9395-3.0571-5.491-3.0793-3.3352-.0288-4.9298,1.9654-5.6776,3.9856-.661,1.7866-.5811,3.5806-.5811,3.5806.0389.9153.8136,1.6273,1.7289,1.5883s1.6261-.8136,1.5872-1.7289"/><path class="cls-1" d="m39.9964,21.4848c.0012,0,.081-1.794-.5803-3.5806-.7478-2.0203-2.342-4.0145-5.6772-3.9856-2.5527.0222-4.3194,1.392-5.4922,3.0793-1.4197,2.0429-1.8925,4.5438-1.9611,4.9465,0-.0019-2.9126,14.1427-2.9126,14.1427-.1846.8974.3938,1.7757,1.2912,1.9603.8974.1842,1.7761-.3938,1.9603-1.2912l2.9184-14.1727c.0062-.0288.0109-.058.0152-.0876,0,0,.2991-1.9985,1.4146-3.6047.6045-.8693,1.4789-1.6413,2.795-1.653,1.5007-.0132,2.1987.9102,2.5344,1.8185.423,1.1416.3782,2.2875.3782,2.2875-.0389.9153.673,1.69,1.5883,1.7289s1.6888-.673,1.7278-1.5883Zm0,0h0"/></g></svg>