<?xml version="1.0" encoding="UTF-8"?>
<svg id="Aries" xmlns="http://www.w3.org/2000/svg" viewBox="0 0 50 50">
  <g id="Sign">
    <path class="cls-1" d="m49.9949,17.4685c-.0666,1.533-1.3664,2.7161-2.8827,2.6495-1.5331-.0667-2.7161-1.3497-2.6495-2.8828,0,0,.0833-1.8995-.6332-3.7992-.5499-1.5164-1.7163-3.0661-4.2158-3.0327-2.1996.0167-3.6493,1.2997-4.6658,2.7495-1.8496,2.6828-2.3495,6.0154-2.3495,6.0154-.0167.0499-.0167.0833-.0334.1332l-4.8323,23.4287-.0334.2c-.0666.2999-.1666.5832-.3166.8332-.0499.0833-.1.1666-.1833.2499-.15.2166-.3333.4166-.5499.5499-.0833.0833-.1666.1333-.2499.1833-.05.0334-.1.0667-.15.0833-.1.05-.2166.1-.3333.1333-.0666.0334-.1499.05-.2166.0666-.0499.0167-.0833.0334-.1332.05h-.0667c-.3333.0666-.6665.0666-.9998,0h-.0667c-.0166,0-.0166-.0167-.0333-.0167-.0334,0-.0667-.0167-.1-.0334-.0833-.0166-.15-.0333-.2166-.0666-.1167-.0334-.2166-.0833-.3166-.1333-.05-.0166-.1167-.0499-.1667-.0833-.0833-.0499-.1666-.1-.2499-.1833-.2166-.15-.4166-.3333-.5499-.5499-.0833-.0833-.1333-.1666-.1833-.2499-.15-.25-.2667-.5332-.3166-.8332l-.0334-.2-4.8323-23.4287c-.0167-.0499-.0167-.0833-.0334-.1332,0,0-.4999-3.3327-2.3495-6.0154-1.0165-1.4498-2.4662-2.7328-4.6658-2.7495-2.4995-.0334-3.6658,1.5163-4.2158,3.0327-.7165,1.8996-.6332,3.7992-.6332,3.7992.0666,1.5331-1.1164,2.8161-2.6495,2.8828-1.5163.0666-2.8161-1.1165-2.8827-2.6495,0,0-.1333-2.9827.9665-5.9655,1.2497-3.3659,3.9158-6.6819,9.4647-6.632,4.2491.0334,7.1985,2.3162,9.1481,5.1323,2.3662,3.3993,3.1661,7.5651,3.266,8.2317l2.1495,10.4146,2.1495-10.4146c.1-.6666.8999-4.8324,3.266-8.2317,1.9496-2.8161,4.899-5.099,9.1481-5.1323,5.5489-.0499,8.215,3.266,9.4647,6.632,1.0998,2.9828.9665,5.9655.9665,5.9655Z"/>
  </g>
</svg>