<?xml version="1.0" encoding="UTF-8"?><svg id="Cancer" xmlns="http://www.w3.org/2000/svg" viewBox="0 0 50 50"><defs><style>.cls-1{fill:#fff;fill-rule:evenodd;}</style></defs><g id="Sign"><path class="cls-1" d="m17.553,13.9908c-4.1687,0-7.553,3.3843-7.553,7.5516s3.3843,7.5525,7.553,7.5525,7.5516-3.3843,7.5516-7.5525-3.3843-7.5516-7.5516-7.5516Zm0,3.5945c2.1838,0,3.9581,1.7734,3.9581,3.9572,0,2.1851-1.7743,3.9581-3.9581,3.9581-2.1851,0-3.9581-1.773-3.9581-3.9581,0-2.1838,1.773-3.9572,3.9581-3.9572"/><path class="cls-1" d="m39.194,14.9662c-.0009-.0009-3.7487-2.4901-8.8928-3.6403-5.2862-1.1813-11.993-.9553-17.7145,4.5174-.7171.6861-.7416,1.8237-.0572,2.5408.6861.7171,1.825.7416,2.5421.0559,4.6595-4.4571,10.1405-4.569,14.4451-3.6067,4.4471.9942,7.695,3.1299,7.695,3.1299.8268.5471,1.9434.3203,2.4906-.5065.5471-.8281.3186-1.9434-.5083-2.4906Zm0,0h0"/><path class="cls-1" d="m32.4482,36.009c4.1683,0,7.5516-3.3843,7.5516-7.5525s-3.3834-7.5516-7.5516-7.5516-7.553,3.3843-7.553,7.5516,3.3843,7.5525,7.553,7.5525Zm0-3.5945c-2.1851,0-3.9585-1.7734-3.9585-3.9581s1.7734-3.9572,3.9585-3.9572c2.1838,0,3.9581,1.7734,3.9581,3.9572s-1.7743,3.9581-3.9581,3.9581"/><path class="cls-1" d="m10.8067,35.0336c0,.0013,3.7492,2.4906,8.8928,3.6403,5.2862,1.1817,11.9935.9553,17.7145-4.5174.7163-.6857.7421-1.8245.0559-2.5408-.6857-.7171-1.8232-.7429-2.5404-.0568-4.6599,4.458-10.1405,4.5699-14.4456,3.608-4.4484-.9946-7.695-3.1317-7.695-3.1317-.8277-.5471-1.943-.3186-2.4901.5078-.5471.8281-.3199,1.9434.5078,2.4906Zm0,0h0"/></g></svg>