<?xml version="1.0" encoding="UTF-8"?>
<svg id="Cancer" xmlns="http://www.w3.org/2000/svg" viewBox="0 0 50 50">
  <g id="Sign">
    <path class="cls-1" d="m48.65,8.2833s-6.2333-4.15-14.8167-6.0667C25.0334.2334,13.85.6167,4.3167,9.7333c-.0334.0334-.0834.0667-.1.1167C1.6333,12.15,0,15.5,0,19.2333c0,6.95,5.6333,12.5833,12.5833,12.5833s12.5833-5.6333,12.5833-12.5833c0-4.7666-2.6499-8.9166-6.5667-11.0667,4.8667-1.3833,9.7334-1.05,13.9334-.1167,7.4,1.6667,12.8167,5.2167,12.8167,5.2167,1.3833.9167,3.2499.5333,4.15-.8333.9166-1.3833.5333-3.2499-.85-4.15Zm-29.4667,10.95c0,3.65-2.95,6.6-6.6,6.6-3.6333,0-6.5999-2.95-6.5999-6.6,0-3.6333,2.9666-6.5834,6.5999-6.5834,3.65,0,6.6,2.95,6.6,6.5834Z"/>
    <path class="cls-1" d="m37.4167,18.1666c-6.95,0-12.5833,5.65-12.5833,12.6,0,4.7667,2.6499,8.9167,6.5667,11.0667-4.8667,1.3834-9.7334,1.05-13.9334.1167-7.4-1.6667-12.8167-5.2167-12.8167-5.2167-1.3833-.9166-3.2333-.5333-4.15.8333-.9166,1.3834-.5333,3.25.85,4.15,0,0,6.25,4.15,14.8167,6.0667,8.8166,1.9833,19.9833,1.6,29.5166-7.5167.0334-.0333.0667-.0666.0834-.1,2.6-2.3,4.2333-5.6666,4.2333-9.4,0-6.95-5.6333-12.6-12.5833-12.6Zm-6.6,12.6c0-3.65,2.95-6.5999,6.6-6.5999,3.6333,0,6.5999,2.9499,6.5999,6.5999,0,3.6334-2.9666,6.5834-6.5999,6.5834-3.65,0-6.6-2.9499-6.6-6.5834Z"/>
  </g>
</svg>