<?xml version="1.0" encoding="UTF-8"?>
<svg id="Cancer" xmlns="http://www.w3.org/2000/svg" viewBox="0 0 50 50">
    <g id="Sign">
        <path class="cls-1"
            d="m39.19,14.97s-3.74-2.49-8.89-3.64c-5.28-1.1899-11.99-.96-17.71,4.51-.02.02-.05.04-.06.07-1.55,1.38-2.53,3.39-2.53,5.63,0,4.17,3.38,7.55,7.55,7.55s7.55-3.38,7.55-7.55c0-2.86-1.59-5.35-3.94-6.64,2.92-.83,5.84-.63,8.36-.07,4.44,1,7.69,3.13,7.69,3.13.83.55,1.95.32,2.49-.5.55-.83.32-1.95-.51-2.49Zm-17.68,6.57c0,2.19-1.77,3.96-3.96,3.96-2.18,0-3.96-1.77-3.96-3.96,0-2.18,1.78-3.95,3.96-3.95,2.19,0,3.96,1.77,3.96,3.95Z" />
        <path class="cls-1"
            d="m32.45,20.9c-4.17,0-7.55,3.39-7.55,7.56,0,2.86,1.59,5.35,3.94,6.64-2.92.83-5.84.63-8.36.07-4.44-1-7.69-3.13-7.69-3.13-.83-.55-1.94-.32-2.49.5-.55.83-.32,1.95.51,2.49,0,0,3.75,2.49,8.89,3.64,5.29,1.19,11.99.96,17.71-4.51.02-.02.04-.04.05-.06,1.56-1.38,2.54-3.4,2.54-5.64,0-4.17-3.38-7.56-7.55-7.56Zm-3.96,7.56c0-2.19,1.77-3.96,3.96-3.96,2.18,0,3.96,1.77,3.96,3.96,0,2.1801-1.78,3.95-3.96,3.95-2.19,0-3.96-1.77-3.96-3.95Z" />
    </g>
</svg>