<?xml version="1.0" encoding="UTF-8"?>
<svg id="Capricorn" xmlns="http://www.w3.org/2000/svg" viewBox="0 0 50 50">
  <g id="Sign">
    <path class="cls-1" d="m49.9679,26.5541c0-.15-.0333-.3-.0499-.45,0,0-1.4167-7.6834-10.8002-8.2001-7.25-.4167-12.8167,6.5334-12.6668,14.2835-.85-1.25-1.3-2.4334-1.4834-2.9834V8.3206c0-.3667-.0666-.7333-.2-1.0834C21.8509-.0462,15.9842.0871,14.5675.2372c-3.3334-.0834-5.7834,1.5166-7.4001,3.3833l-2.0166-2.35C4.1008.0371,2.2507-.0962,1.0173.9538-.1993,2.0038-.3494,3.8538.7007,5.0872l3.7168,4.3168v22.4502c0,1.6166,1.3,2.9167,2.9167,2.9167s2.9333-1.3001,2.9333-2.9167V9.5872c.1667-.4.5001-1.1001,1.05-1.8.6667-.8667,1.6667-1.7834,3.2001-1.6834.2167,0,.4167,0,.6167-.0333,0,0,2.5167-.1834,3.9833,2.8667v20.7002c0,.2667.0334.5334.1001.7667,0,0,1.9333,7.0168,8.1333,10.4168-1.3,2.8167-5.75,4.0167-10.1001,2.2834-1.5166-.6-3.2167.1334-3.8,1.6333-.6,1.5001.1334,3.2167,1.6333,3.8001,8.1835,3.2501,15.7836-.1167,17.9169-5.9668,1.9334.2,4.1335.0833,6.6001-.5167.5666-.1167,4.25-1.0167,7.0834-4.3834,1.9333-2.3167,3.5667-5.8,3.2833-11.1168Zm-7.7667,7.35c-1.65,1.9667-3.8001,2.4334-3.8001,2.4334-.0499,0-.0833.0167-.1333.0167-1.8834.4666-3.5334.55-4.9501.3499-.1167-.4666-.2499-.9499-.4334-1.4333-1.2333-3.4167-.5167-7.1167,1.45-9.4501,1.1168-1.3166,2.6501-2.1834,4.4668-2.0834,3.9167.2334,5.1001,2.8,5.3333,3.4334.1,3.1667-.7499,5.3167-1.9333,6.7334Z"/>
  </g>
</svg>