<?xml version="1.0" encoding="UTF-8"?>
<svg id="Capricorn" xmlns="http://www.w3.org/2000/svg" viewBox="0 0 50 50">
    <g id="Sign">
        <path class="cls-1"
            d="m42.48,25.93c0-.09-.02-.18-.03-.27,0,0-.85-4.61-6.48-4.92-4.35-.25-7.6899,3.92-7.6,8.57-.51-.75-.78-1.46-.89-1.79v-12.53c0-.22-.04-.44-.12-.65-1.75-4.37-5.27-4.29-6.12-4.2-2-.05-3.47.91-4.44,2.03l-1.21-1.41c-.63-.7401-1.7401-.82-2.48-.19-.73.63-.82,1.74-.19,2.48l2.23,2.59v13.47c0,.97.78,1.75,1.75,1.75s1.7599-.78,1.7599-1.75v-13.36c.1-.24.3-.66.63-1.08.4-.52,1-1.07,1.92-1.01.13,0,.25,0,.37-.02,0,0,1.51-.11,2.39,1.72v12.42c0,.16.02.32.0601.46,0,0,1.16,4.21,4.8799,6.25-.78,1.69-3.45,2.41-6.06,1.37-.91-.36-1.93.08-2.28.98-.36.9.08,1.93.98,2.28,4.91,1.95,9.47-.07,10.75-3.58,1.16.12,2.48.05,3.96-.31.34-.07,2.55-.61,4.25-2.63,1.16-1.39,2.14-3.48,1.97-6.67Zm-4.66,4.41c-.99,1.18-2.28,1.46-2.28,1.46-.03,0-.05.01-.08.01-1.13.28-2.12.33-2.97.21-.07-.28-.15-.5699-.26-.86-.74-2.05-.31-4.27.87-5.67.67-.79,1.59-1.31,2.6801-1.25,2.35.14,3.06,1.68,3.2,2.06.06,1.9-.45,3.19-1.16,4.04Z" />
    </g>
</svg>