<?xml version="1.0" encoding="UTF-8"?><svg id="Capricorn" xmlns="http://www.w3.org/2000/svg" viewBox="0 0 50 50"><defs><style>.cls-1{fill:#fff;fill-rule:evenodd;}</style></defs><g id="Sign"><path class="cls-1" d="m12.9225,13.0457l2.2244,2.5948v13.4679c0,.9691.7872,1.7563,1.7563,1.7563s1.7568-.7872,1.7568-1.7563v-14.1182c0-.419-.1502-.8251-.423-1.1425l-2.6469-3.0891c-.6308-.736-1.7407-.8215-2.4767-.1903-.7364.6312-.8215,1.7412-.1908,2.4776"/><path class="cls-1" d="m28.9054,34.4892c-.777,1.6863-3.4462,2.4067-6.0597,1.3694-.9013-.3584-1.923.0834-2.2805.9847-.3579.9004.0834,1.923.9847,2.2801,4.9141,1.9507,9.4738-.0686,10.7527-3.5822,1.1617.1221,2.4744.049,3.9562-.3071.3388-.0718,2.548-.6103,4.2512-2.6371,1.1634-1.3854,2.1374-3.4792,1.9716-6.6677-.0049-.0923-.0169-.1837-.0357-.2728,0,0-.8425-4.6034-6.4729-4.9194-4.3515-.2452-7.697,3.9223-7.6065,8.5747-.5019-.7565-.7716-1.4594-.8826-1.7893-.0004,0-.0004-12.5322-.0004-12.5322,0-.2238-.0423-.4449-.1257-.6526-1.7465-4.3627-5.2662-4.2851-6.1208-4.1973-2.2101-.0637-3.7542,1.1206-4.7282,2.3826-.904,1.171-1.2789,2.3759-1.2789,2.3759-.2942.9232.2171,1.9128,1.1407,2.207.9236.2933,1.9123-.218,2.2065-1.1412,0,0,.2171-.6539.7123-1.2949.399-.5171,1.003-1.0685,1.923-1.0137.1239.0071.2483.0013.3713-.0183,0,0,1.5102-.1039,2.3866,1.7189v12.4283c0,.1551.021.3103.0615.4596,0,0,1.1541,4.2031,4.8735,6.2447Zm3.5808-2.4686c.855.1163,1.8414.0664,2.9746-.2077.0267-.0067.0535-.0125.0802-.0169,0,0,1.2874-.2786,2.2792-1.4594.7097-.8447,1.2241-2.1316,1.1608-4.0351-.1386-.378-.8496-1.9253-3.2055-2.0576-1.0845-.0606-2.0104.4542-2.6781,1.2495-1.175,1.4001-1.6039,3.6129-.8643,5.667.1039.2897.1886.5764.2532.8603"/></g></svg>