<?xml version="1.0" encoding="UTF-8"?>
<svg id="Leo" xmlns="http://www.w3.org/2000/svg" viewBox="0 0 50 50">
  <g id="Sign">
    <path class="cls-1" d="m48.5666,44.6069c-.5879-1.5215-2.3168-2.2994-3.8555-1.7116-3.7346,1.4524-6.4491,1.4697-8.2817.4495-1.435-.778-2.1612-2.1958-2.2822-3.5443-.2939-3.3888,2.144-6.3625,4.5818-9.2672,3.2677-3.8901,6.743-7.6074,7.6939-11.0135,1.7981-6.5181.9509-10.8405-.7607-13.6933-2.7836-4.6509-8.1088-5.8266-11.1172-5.8266-8.2991,0-12.4485,4.8237-14.5405,9.6649-.6743,1.5906-1.1238,3.1639-1.3831,4.5472-1.3485-.4669-2.7836-.7262-4.2878-.7262-7.2443,0-13.1055,5.8612-13.1055,13.0882,0,7.2443,5.8612,13.1055,13.1055,13.1055,7.227,0,13.0882-5.8612,13.0882-13.1055,0-3.3369-1.2449-6.3625-3.3197-8.6793.0865-1.193.3977-3.5271,1.4004-5.8785,1.2795-3.0084,3.8729-6.0513,9.0425-6.0513,1.5906,0,4.5125.4495,5.9994,2.9219,1.1239,1.8845,1.314,4.7373.121,9.0251-.7607,2.7837-3.8382,5.6191-6.5182,8.7831-3.4924,4.184-6.3798,8.7831-5.9303,13.6415.2767,3.1467,2.0056,6.4143,5.3252,8.2471,2.9392,1.6079,7.3134,2.1957,13.313-.121,1.5388-.5879,2.3167-2.3168,1.7116-3.8556Zm-34.2332-10.8924c-3.9421,0-7.1406-3.1985-7.1406-7.1406,0-3.9246,3.1985-7.1233,7.1406-7.1233,3.9246,0,7.1233,3.1986,7.1233,7.1233,0,3.9421-3.1986,7.1406-7.1233,7.1406Z"/>
  </g>
</svg>