<?xml version="1.0" encoding="UTF-8"?><svg id="Leo" xmlns="http://www.w3.org/2000/svg" viewBox="0 0 50 50"><defs><style>.cls-1{fill:#fff;fill-rule:evenodd;}</style></defs><g id="Sign"><path class="cls-1" d="m18.8253,18.3394c-4.181,0-7.5753,3.3943-7.5753,7.5753s3.3943,7.5753,7.5753,7.5753,7.5753-3.3943,7.5753-7.5753-3.3943-7.5753-7.5753-7.5753Zm0,3.4502c2.2757,0,4.1247,1.8482,4.1247,4.1251s-1.849,4.1239-4.1247,4.1239-4.1243-1.8478-4.1243-4.1239,1.8482-4.1251,4.1243-4.1251"/><path class="cls-1" d="m24.4508,21.3649s.0053-1.9352.8356-3.87c.7482-1.7486,2.2417-3.5044,5.238-3.5044.9202,0,2.6085.2583,3.4607,1.6862.6518,1.0907.766,2.7465.0777,5.2259-.4457,1.6032-2.2275,3.2449-3.7684,5.0793-2.0283,2.415-3.6931,5.0745-3.438,7.8886.166,1.8178,1.1587,3.7061,3.0874,4.7676,1.6988.9336,4.2308,1.2704,7.7-.0636.8891-.3417,1.3328-1.3409.9907-2.2304-.3409-.8883-1.3401-1.3316-2.2295-.9895-2.1648.832-3.7372.8425-4.7976.2599-.8291-.4559-1.2437-1.2757-1.3142-2.0563-.1781-1.9538,1.2344-3.6801,2.6429-5.3563,1.8947-2.2563,3.9032-4.4048,4.4506-6.3761,1.0457-3.7611.5494-6.2631-.4385-7.9186-1.6065-2.6903-4.6911-3.3672-6.4239-3.3672-4.8028,0-7.2093,2.7931-8.4097,5.5947-1.1202,2.615-1.115,5.2299-1.115,5.2299,0,.9522.7729,1.7255,1.7255,1.7255s1.7255-.7733,1.7255-1.7255"/></g></svg>