<?xml version="1.0" encoding="UTF-8"?>
<svg id="Leo" xmlns="http://www.w3.org/2000/svg" viewBox="0 0 50 50">
    <g id="Sign">
        <path class="cls-1"
            d="m38.63,36.34c-.34-.88-1.34-1.33-2.23-.99-2.16.84-3.73.85-4.79.26-.83-.45-1.25-1.27-1.32-2.05-.17-1.96,1.2401-3.68,2.65-5.36,1.89-2.25,3.9-4.4,4.45-6.3701,1.04-3.77.55-6.27-.44-7.92-1.61-2.69-4.69-3.37-6.43-3.37-4.8,0-7.2,2.79-8.41,5.59-.39.92-.65,1.83-.8,2.63-.78-.27-1.61-.42-2.48-.42-4.19,0-7.58,3.39-7.58,7.57,0,4.19,3.39,7.58,7.58,7.58,4.18,0,7.57-3.39,7.57-7.58,0-1.93-.72-3.68-1.92-5.02.05-.69.23-2.04.81-3.4.7401-1.74,2.2401-3.5,5.23-3.5.92,0,2.61.26,3.47,1.69.65,1.09.76,2.74.07,5.22-.44,1.61-2.22,3.25-3.77,5.08-2.02,2.42-3.69,5.08-3.43,7.89.16,1.82,1.16,3.71,3.08,4.77,1.7.93,4.23,1.27,7.7-.07.89-.34,1.34-1.34.99-2.23Zm-19.8-6.3c-2.28,0-4.13-1.85-4.13-4.13,0-2.27,1.85-4.12,4.13-4.12,2.27,0,4.12,1.85,4.12,4.12,0,2.28-1.85,4.13-4.12,4.13Z" />
    </g>
</svg>