<?xml version="1.0" encoding="UTF-8"?>
<svg id="Libra" xmlns="http://www.w3.org/2000/svg" viewBox="0 0 50 50">
  <g id="Sign">
    <path class="cls-1" d="m50,31.1794c0,1.8364-1.4909,3.3273-3.3273,3.3273h-11.6727c-1.8182,0-3.3091-1.4909-3.3091-3.3273,0-1.1636.6-2.1817,1.4909-2.7818.0546-.1091.1273-.2.2182-.291,2.0364-2.0908,3.2909-4.9636,3.2909-8.109,0-6.4545-5.2364-11.6909-11.6909-11.6909s-11.6909,5.2364-11.6909,11.6909c0,3.4545,1.5091,6.5636,3.8909,8.7091.0909.0727.1636.1455.2182.2364.1273.1091.2182.2364.3091.3637.3999.5636.5818,1.2182.5818,1.8727,0,.2364-.0182.4545-.0727.6727v.0182c-.0364.2001-.091.3819-.1637.5636-.0909.2364-.2182.4727-.4001.6909-.0545.0909-.1272.1819-.2.2728-.0363.0545-.0909.0909-.1454.1273-.1273.1454-.2728.2545-.4001.3637-.1818.1272-.3637.2363-.5636.3273-.4363.1818-.9091.2909-1.3636.2909H3.3273c-1.8364,0-3.3273-1.4909-3.3273-3.3273s1.4909-3.3272,3.3273-3.3272h5.1273c-1.1455-2.3818-1.7819-5.0364-1.7819-7.8546C6.6727,9.8704,14.8909,1.6703,25,1.6703s18.3273,8.2,18.3273,18.3273c0,2.8182-.6364,5.4727-1.7637,7.8546h5.1091c1.8364,0,3.3273,1.4909,3.3273,3.3272Z"/>
    <path class="cls-1" d="m3.7372,48.3297h42.5256c1.8324,0,3.3204-1.4865,3.3204-3.3188s-1.488-3.3212-3.3204-3.3212H3.7372c-1.8324,0-3.3204,1.488-3.3204,3.3212s1.488,3.3188,3.3204,3.3188h0Z"/>
  </g>
</svg>