<?xml version="1.0" encoding="UTF-8"?><svg id="Libra" xmlns="http://www.w3.org/2000/svg" viewBox="0 0 50 50"><defs><style>.cls-1{fill:#fff;fill-rule:evenodd;}</style></defs><g id="Sign"><path class="cls-1" d="m13.0762,30.2252h6.4205c1.0069,0,1.8254-.8184,1.8254-1.8254,0-1.0078-.8184-1.8262-1.8254-1.8262h-6.4205c-1.0078,0-1.8262.8184-1.8262,1.8262,0,1.0069.8184,1.8254,1.8262,1.8254"/><path class="cls-1" d="m30.5033,30.2252h6.4205c1.0078,0,1.8262-.8184,1.8262-1.8254,0-1.0078-.8184-1.8262-1.8262-1.8262h-6.4205c-1.0082,0-1.8262.8184-1.8262,1.8262,0,1.0069.818,1.8254,1.8262,1.8254"/><path class="cls-1" d="m20.7145,27.0398c-1.3155-1.1783-2.1437-2.8884-2.1437-4.7914,0-3.5475,2.8807-6.4291,6.4291-6.4291s6.4295,2.8816,6.4295,6.4291c0,1.7341-.6877,3.3084-1.8057,4.4644-.6997.725-.6792,1.8824.045,2.5821.725.6997,1.8824.68,2.5821-.045,1.7517-1.8142,2.8302-4.2836,2.8302-7.0015,0-5.5639-4.5171-10.0811-10.0811-10.0811s-10.0806,4.5171-10.0806,10.0811c0,2.9836,1.2979,5.6655,3.3589,7.5118.7511.6723,1.9063.6076,2.5786-.1427.6727-.7503.6089-1.9063-.1423-2.5778"/><path class="cls-1" d="m13.3055,37.8326h23.3891c1.0078,0,1.8262-.8176,1.8262-1.8254s-.8184-1.8266-1.8262-1.8266H13.3055c-1.0078,0-1.8262.8184-1.8262,1.8266s.8184,1.8254,1.8262,1.8254"/></g></svg>