<?xml version="1.0" encoding="UTF-8"?>
<svg id="Libra" xmlns="http://www.w3.org/2000/svg" viewBox="0 0 50 50">
    <g id="Sign">
        <path class="cls-1"
            d="m38.75,28.4c0,1.01-.82,1.83-1.83,1.83h-6.42c-1,0-1.82-.82-1.82-1.83,0-.64.33-1.2.82-1.53.03-.06.07-.11.12-.16,1.12-1.15,1.81-2.73,1.81-4.46,0-3.55-2.88-6.43-6.43-6.43s-6.43,2.88-6.43,6.43c0,1.9.83,3.61,2.14,4.79.05.04.09.08.12.13.07.06.12.13.17.2.22.31.32.67.32,1.03,0,.13-.01.25-.04.37v.01c-.02.11-.05.21-.09.31-.05.13-.12.26-.22.38-.03.05-.0699.1-.11.15-.02.03-.05.05-.08.07-.07.08-.15.14-.22.2-.1.0699-.2.1299-.31.18-.24.1-.5.16-.75.16h-6.42c-1.01,0-1.83-.82-1.83-1.83s.82-1.83,1.83-1.83h2.82c-.63-1.31-.98-2.77-.98-4.32,0-5.57,4.52-10.08,10.08-10.08s10.08,4.51,10.08,10.08c0,1.55-.35,3.01-.97,4.32h2.81c1.01,0,1.83.82,1.83,1.83Z" />
        <path class="cls-1"
            d="m13.3055,37.8326h23.3891c1.0078,0,1.8262-.8176,1.8262-1.8254s-.8184-1.8266-1.8262-1.8266H13.3055c-1.0078,0-1.8262.8184-1.8262,1.8266s.8184,1.8254,1.8262,1.8254h0Z" />
    </g>
</svg>