<?xml version="1.0" encoding="UTF-8"?><svg id="Pisces" xmlns="http://www.w3.org/2000/svg" viewBox="0 0 50 50"><defs><style>.cls-1{fill:#fff;fill-rule:evenodd;}</style></defs><g id="Sign"><path class="cls-1" d="m12.4309,14.0603s8.7253,10.4503-.0531,21.9461c-.6161.8064-.4604,1.9615.346,2.5772.806.6161,1.9606.4612,2.5768-.3452,10.6173-13.9038-.0531-26.5435-.0531-26.5435-.6528-.7771-1.8135-.8781-2.5914-.2252-.7762.6528-.8768,1.8135-.2252,2.5906"/><path class="cls-1" d="m34.7524,11.6949s-10.6712,12.6396-.0544,26.5435c.6166.8064,1.7716.9613,2.5781.3452.8064-.6157.9609-1.7708.3447-2.5772-8.7779-11.4958-.0531-21.9461-.0531-21.9461.6528-.7771.5514-1.9378-.2252-2.5906s-1.9373-.5519-2.5901.2252"/><path class="cls-1" d="m11.8377,26.4924h26.3234c1.0148,0,1.8389-.8241,1.8389-1.8389s-.8241-1.8385-1.8389-1.8385H11.8377c-1.014,0-1.8377.8241-1.8377,1.8385s.8237,1.8389,1.8377,1.8389"/></g></svg>