<?xml version="1.0" encoding="UTF-8"?>
<svg id="Pisces" xmlns="http://www.w3.org/2000/svg" viewBox="0 0 50 50">
  <g id="Sign">
    <path class="cls-1" d="m4.0515,6.7671s14.5421,17.4172-.0885,36.5768c-1.0269,1.344-.7673,3.2691.5767,4.2953,1.3433,1.0269,3.2677.7687,4.2946-.5753,17.6955-23.1731-.0885-44.2391-.0885-44.2391-1.088-1.2951-3.0225-1.4634-4.3191-.3754-1.2937,1.088-1.4613,3.0225-.3754,4.3176h0Z"/>
    <path class="cls-1" d="m41.254,2.8249s-17.7854,21.066-.0906,44.2391c1.0276,1.344,2.9527,1.6022,4.2968.5753,1.344-1.0262,1.6015-2.9513.5746-4.2953-14.6299-19.1596-.0885-36.5768-.0885-36.5768,1.088-1.2951.919-3.2296-.3754-4.3176s-3.2289-.9198-4.3169.3754h0Z"/>
    <path class="cls-1" d="m3.0628,27.4873h43.8723c1.6914,0,3.0649-1.3735,3.0649-3.0649s-1.3735-3.0642-3.0649-3.0642H3.0628c-1.6899,0-3.0628,1.3735-3.0628,3.0642s1.3728,3.0649,3.0628,3.0649h0Z"/>
  </g>
</svg>