<?xml version="1.0" encoding="UTF-8"?>
<svg id="Sagittarius" xmlns="http://www.w3.org/2000/svg" viewBox="0 0 50 50">
    <g id="Sign">
        <path class="cls-1"
            d="m37.5,14.54l-.59,12.16c-.06,1.08-.97,1.91-2.04,1.85-1.08-.05-1.9-.96-1.85-2.03l.34-7.1299-6.62,6.62,4.74,4.74c.76.76.76,1.99,0,2.75s-1.99.76-2.75,0l-4.74-4.74-8.17,8.17c-.76.76-1.99.76-2.75,0s-.76-1.99,0-2.75l8.17-8.17-4.74-4.73c-.76-.77-.76-2,0-2.76.76-.7599,1.99-.7599,2.75,0l4.74,4.7401,6.62-6.62-7.13.34c-1.07.05-1.98-.77-2.03-1.85-.06-1.07.77-1.98,1.85-2.04l12.16-.59c.55-.02,1.08.18,1.47.57.39.39.59.92.57,1.47Z" />
    </g>
</svg>