<?xml version="1.0" encoding="UTF-8"?><svg id="Sagittarius" xmlns="http://www.w3.org/2000/svg" viewBox="0 0 50 50"><defs><style>.cls-1{fill:#fff;fill-rule:evenodd;}</style></defs><g id="Sign"><path class="cls-1" d="m23.4849,16.9829l10.0194-.4871-.4875,10.0194c-.0516,1.0733.7777,1.9871,1.8505,2.0392,1.0737.0521,1.9871-.7767,2.0396-1.85l.5908-12.1628c.027-.5483-.18-1.0829-.5684-1.4712s-.9229-.5944-1.4717-.5679l-12.1619.5908c-1.0728.0525-1.9021.9659-1.8505,2.0396.0525,1.0733.9659,1.9021,2.0396,1.85"/><path class="cls-1" d="m15.8235,36.9299l19.5605-19.5605c.7603-.7603.7603-1.9939,0-2.7538-.7589-.7598-1.993-.7598-2.7533,0l-19.5605,19.561c-.7603.7598-.7603,1.9935,0,2.7533.7589.7598,1.993.7598,2.7533,0"/><path class="cls-1" d="m31.4784,30.7466l-12.2254-12.2254c-.7603-.7598-1.9944-.7598-2.7533,0-.7603.7598-.7603,1.9935,0,2.7538l12.2254,12.2254c.7603.7598,1.993.7598,2.7533,0s.7603-1.9939,0-2.7538"/></g></svg>