<?xml version="1.0" encoding="UTF-8"?>
<svg id="Sagittarius" xmlns="http://www.w3.org/2000/svg" viewBox="0 0 50 50">
  <g id="Sign">
    <path class="cls-1" d="m49.9973,4.0825l-1.18,24.3187c-.12,2.1598-1.9398,3.8197-4.0797,3.6997-2.1599-.1-3.7998-1.9199-3.6997-4.0598l.6799-14.2591-13.2393,13.2393,9.4795,9.4795c1.5199,1.5199,1.5199,3.9798,0,5.4997s-3.9798,1.5199-5.4997,0l-9.4795-9.4795L6.6397,48.86c-1.5199,1.5199-3.9798,1.5199-5.4997,0s-1.5199-3.9798,0-5.4997l16.3391-16.3391-9.4795-9.4596c-1.5199-1.5398-1.5199-3.9998,0-5.5197,1.5199-1.5198,3.9798-1.5198,5.4997,0l9.4795,9.4796,13.2393-13.2393-14.2592.6799c-2.1399.1-3.9597-1.54-4.0597-3.6997-.12-2.1399,1.5398-3.9599,3.6997-4.0799L45.9175.0027c1.0999-.04,2.1598.36,2.9398,1.14.78.7799,1.18,1.8399,1.14,2.9398Z"/>
  </g>
</svg>