<?xml version="1.0" encoding="UTF-8"?><svg id="Scorpio" xmlns="http://www.w3.org/2000/svg" viewBox="0 0 50 50"><defs><style>.cls-1{fill:#fff;fill-rule:evenodd;}</style></defs><g id="Sign"><path class="cls-1" d="m15.8145,34.3624v-14.9861c0-.0019.0163-2.4592,2.5359-2.5051.5002-.0089,2.4752.31,2.4752,2.5051v15.4034c0,.914.7425,1.6565,1.6573,1.6565s1.6573-.7425,1.6573-1.6565v-15.4034c0-5.1444-4.6785-5.8406-5.8504-5.8196-5.8049.1066-5.7897,5.8196-5.7897,5.8196v14.9861c0,.9152.7425,1.6576,1.6573,1.6576s1.6573-.7425,1.6573-1.6576"/><path class="cls-1" d="m24.1401,34.3624v-14.9861c0-.0019.0163-2.4592,2.5359-2.5051.4998-.0089,2.4752.31,2.4752,2.5051v10.1987c0,.9152.7425,1.658,1.6573,1.658s1.6573-.7429,1.6573-1.658v-10.1987c0-5.1444-4.6785-5.8406-5.8504-5.8196-5.8049.1066-5.7897,5.8196-5.7897,5.8196v14.9861c0,.9152.7425,1.6576,1.6573,1.6576s1.6573-.7425,1.6573-1.6576"/><path class="cls-1" d="m29.1511,29.7792c0,.0012-.0086,1.4908.5733,3.0119.6647,1.7397,2.0334,3.4701,4.6976,3.6404.301.0276,2.3188.1404,3.9741-1.5655.9875-1.0163,1.9268-2.7681,1.9785-5.8873.0159-.9152-.7149-1.6697-1.63-1.6849-.914-.0148-1.6689.7153-1.6841,1.63-.0315,1.898-.4411,3.0139-1.0423,3.6334-.5857.6032-1.2835.5745-1.2835.5745-.0276-.0031-.0556-.0062-.0836-.007-1.07-.0626-1.5647-.8214-1.8307-1.5176-.3516-.9198-.3547-1.8198-.3547-1.8198.0023-.914-.7386-1.6588-1.6534-1.6608s-1.6592.7386-1.6611,1.6526Zm0,0h0"/><path class="cls-1" d="m40.2949,24.2812c-.3127-.4173-.8035-.6631-1.3251-.6631-.522,0-1.014.2458-1.3263.6631l-1.8735,2.497c-.3765.5029-.4372,1.175-.1564,1.7366.2808.5605.8545.9159,1.4822.9159h3.7466c.6281,0,1.2018-.3555,1.4826-.9159.2808-.5616.2197-1.2337-.1564-1.7366l-1.8739-2.497"/></g></svg>