<?xml version="1.0" encoding="UTF-8"?>
<svg id="Scorpio" xmlns="http://www.w3.org/2000/svg" viewBox="0 0 50 50">
  <g id="Sign">
    <path class="cls-1" d="m49.7145,30.8476c-.4834.9499-1.4333,1.5332-2.4832,1.5332h-.8167c-.2,4.7331-1.6999,7.4496-3.2498,9.0663-2.7666,2.8332-6.1331,2.6498-6.6331,2.5999-4.4331-.2833-6.7163-3.1666-7.833-6.0664-.9333-2.4498-.9499-4.8497-.9499-5.0165,0-.0499,0-.1167.0166-.1666-.0166-.05-.0166-.1167-.0166-.1667V15.6316c0-3.6665-3.2832-4.1998-4.1165-4.1832-4.1998.0833-4.2331,4.1665-4.2331,4.1832v25.6655c0,1.5167-1.2333,2.7666-2.7666,2.7666-1.5166,0-2.7498-1.2499-2.7498-2.7666V15.6316c0-3.6665-3.2999-4.1998-4.1332-4.1832-4.1997.0833-4.2331,4.1665-4.2331,4.1832v24.9655c0,1.5332-1.2333,2.7665-2.7499,2.7665-1.5332,0-2.7665-1.2333-2.7665-2.7665V15.6316c0-.1334.0334-9.533,9.6495-9.6996,1.1833-.0167,4.5665.4,6.9997,2.6832,1.4167-1.4833,3.5832-2.6332,6.883-2.6832,1.9499-.0334,9.7495,1.1166,9.7495,9.6996v16.9992c0,.05,0,.1167-.0166.1667.0166.0666.0166.1167.0166.1833,0,0,0,1.5.5834,3.0332.45,1.15,1.2666,2.4166,3.0499,2.5166.0499.0167.1.0167.1333.0167,0,0,1.1666.0499,2.15-.95.8999-.9333,1.5499-2.5666,1.6999-5.2331-1.0166-.0167-1.9332-.5999-2.3832-1.5166-.4666-.9333-.3666-2.05.2667-2.8833l3.1165-4.1665c.5333-.6999,1.3499-1.0999,2.2165-1.0999s1.6833.4,2.1999,1.0999l3.1332,4.1665c.6166.8333.7333,1.95.2667,2.8833Z"/>
  </g>
</svg>