<?xml version="1.0" encoding="UTF-8"?><svg id="Scorpio" xmlns="http://www.w3.org/2000/svg" viewBox="0 0 50 50"><g id="Sign"><path class="cls-1" d="m42.33,28.51c-.29.5699-.86.92-1.49.92h-.4901c-.12,2.84-1.02,4.47-1.95,5.44-1.66,1.7-3.6801,1.59-3.98,1.56-2.66-.17-4.03-1.9-4.7-3.64-.56-1.47-.5699-2.91-.5699-3.01,0-.03,0-.07.0099-.1-.0099-.03-.0099-.07-.0099-.1v-10.2c0-2.2-1.97-2.52-2.47-2.51-2.52.05-2.54,2.5-2.54,2.51v15.4c0,.91-.74,1.66-1.66,1.66-.91,0-1.65-.75-1.65-1.66v-15.4c0-2.2-1.98-2.52-2.48-2.51-2.52.05-2.54,2.5-2.54,2.51v14.98c0,.92-.74,1.66-1.65,1.66-.92,0-1.66-.74-1.66-1.66v-14.98c0-.08.02-5.72,5.79-5.82.71-.01,2.7401.24,4.2,1.61.85-.89,2.15-1.58,4.13-1.61,1.17-.02,5.85.67,5.85,5.82v10.2c0,.03,0,.07-.0099.1.0099.04.0099.07.0099.11,0,0,0,.9.35,1.82.27.69.76,1.45,1.83,1.51.03.01.06.01.08.01,0,0,.7.03,1.29-.57.54-.56.93-1.54,1.02-3.14-.61-.01-1.16-.36-1.43-.91-.28-.56-.22-1.23.16-1.73l1.87-2.5c.32-.42.81-.66,1.33-.66s1.01.24,1.32.66l1.88,2.5c.37.5.44,1.17.16,1.73Z"/></g></svg>