<?xml version="1.0" encoding="UTF-8"?><svg id="Taurus" xmlns="http://www.w3.org/2000/svg" viewBox="0 0 50 50"><defs><style>.cls-1{fill:#fff;fill-rule:evenodd;}</style></defs><g id="Sign"><path class="cls-1" d="m12.6209,12.4457s2.6951,7.5079,12.4089,7.3531c10.6792-.1694,12.4155-8.0384,12.4155-8.0384.2474-1.0068-.3691-2.0252-1.3764-2.2739-1.0073-.247-2.026.3691-2.2734,1.3764,0,0-1.4377,5.0602-8.8256,5.1789-6.808.108-8.8314-4.9204-8.8314-4.9204-.3656-.9707-1.4505-1.462-2.4212-1.0964-.9707.366-1.462,1.4509-1.0964,2.4207"/><path class="cls-1" d="m24.9999,16.5123c-6.6382,0-12.0274,5.3901-12.0274,12.0283s5.3892,12.0274,12.0274,12.0274,12.0279-5.3888,12.0279-12.0274-5.3892-12.0283-12.0279-12.0283Zm0,3.7597c4.5641,0,8.2691,3.7054,8.2691,8.2686s-3.705,8.2691-8.2691,8.2691-8.2691-3.7054-8.2691-8.2691,3.7054-8.2686,8.2691-8.2686"/></g></svg>