<?xml version="1.0" encoding="UTF-8"?>
<svg id="Taurus" xmlns="http://www.w3.org/2000/svg" viewBox="0 0 50 50">
    <g id="Sign">
        <path class="cls-1"
            d="m37.45,11.76c.24-1.01-.37-2.02-1.38-2.27s-2.03.37-2.27,1.37c0,0-1.44,5.06-8.83,5.18-6.81.11-8.83-4.92-8.83-4.92-.37-.97-1.45-1.46-2.42-1.1-.97.3701-1.46,1.46-1.1,2.4301,0,0,1.41,3.9,5.83,6.0099-3.3,2.14-5.48,5.86-5.48,10.08,0,6.64,5.39,12.03,12.03,12.03s12.03-5.39,12.03-12.03c0-4.23-2.19-7.96-5.5-10.09,4.95-2.29,5.92-6.69,5.92-6.69Zm-4.18,16.78c0,4.56-3.71,8.27-8.27,8.27s-8.27-3.71-8.27-8.27,3.71-8.27,8.27-8.27,8.27,3.71,8.27,8.27Z" />
    </g>
</svg>