<?xml version="1.0" encoding="UTF-8"?>
<svg id="Taurus" xmlns="http://www.w3.org/2000/svg" viewBox="0 0 50 50">
  <g id="Sign">
    <path class="cls-1" d="m44.9901,3.7344c.3854-1.622-.5942-3.2439-2.2161-3.6454s-3.26.5942-3.6454,2.2001c0,0-2.3125,8.1258-14.18,8.3185-10.9361.1766-14.1799-7.9009-14.1799-7.9009-.5942-1.5578-2.3286-2.3446-3.8863-1.7665-1.5577.5943-2.3445,2.3446-1.7664,3.9024,0,0,2.2644,6.2629,9.3623,9.6513-5.2994,3.4366-8.8003,9.4106-8.8003,16.1874,0,10.6631,8.6558,19.3189,19.3189,19.3189s19.3189-8.6558,19.3189-19.3189c0-6.7929-3.5169-12.7829-8.8324-16.2033,7.9491-3.6775,9.5068-10.7434,9.5068-10.7434Zm-6.7126,26.9467c0,7.3228-5.9579,13.2807-13.2807,13.2807s-13.2807-5.9579-13.2807-13.2807,5.9579-13.2807,13.2807-13.2807,13.2807,5.9579,13.2807,13.2807Z"/>
  </g>
</svg>