<?xml version="1.0" encoding="UTF-8"?>
<svg id="Virgo" xmlns="http://www.w3.org/2000/svg" viewBox="0 0 50 50">
    <g id="Sign">
        <path class="cls-1"
            d="m40.25,22.61v-.15s-.02-1.39-.6-2.81c-.4301-1.07-1.1801-2.13-2.34-2.78-1.52-.84-3.2-.88-4.66-.32-.71-3.99-4.69-4.57-5.76-4.55-1.98.04-3.28.72-4.14,1.61-1.47-1.37-3.49-1.62-4.2-1.61-5.78.11-5.8,5.75-5.8,5.83v15.01c0,.92.74,1.66,1.66,1.66s1.66-.74,1.66-1.66v-15.01s.02-2.46,2.54-2.5099c.5-.01,2.48.31,2.48,2.5099v15.4301c0,.91.74,1.66,1.66,1.66.91,0,1.66-.75,1.66-1.66v-15.4301s.01-2.46,2.54-2.5099c.5-.01,2.48.31,2.48,2.5099v15.48c-2.83,2.23-5.36,3.55-5.36,3.55-.82.43-1.13,1.43-.71,2.24.42.82,1.43,1.13,2.24.71,0,0,2.21-1.15,4.9-3.14.97,1.14,2.15,2.26,3.38,2.95.8.45,1.81.17,2.26-.63s.16-1.81-.64-2.26c-.88-.5-1.71-1.31-2.42-2.14.53-.45,1.05-.94,1.56-1.45,2.89-2.89,5.32-6.53,5.61-10.53Zm-7.5,7.71v-9.86c.64-.88,1.89-1.27,2.95-.68.46.25.7.7.87,1.12.28.69.34,1.36.36,1.57-.25,2.97-2.06,5.63-4.18,7.85Z" />
    </g>
</svg>