<?xml version="1.0" encoding="UTF-8"?><svg id="Virgo" xmlns="http://www.w3.org/2000/svg" viewBox="0 0 50 50"><defs><style>.cls-1{fill:#fff;fill-rule:evenodd;}</style></defs><g id="Sign"><path class="cls-1" d="m16.0695,32.8406v-15.0082c0-.0019.0164-2.4629,2.5397-2.5101.5009-.009,2.4789.3101,2.4789,2.5101v15.425c0,.9165.7436,1.6605,1.6597,1.6605s1.6597-.744,1.6597-1.6605v-15.425c0-5.1534-4.6855-5.8506-5.8592-5.8284-5.8136.1056-5.7984,5.8284-5.7984,5.8284v15.0082c0,.9165.7436,1.6605,1.6597,1.6605s1.6597-.744,1.6597-1.6605"/><path class="cls-1" d="m24.4076,32.8406v-15.0082c0-.0019.0164-2.4629,2.5397-2.5101.5009-.009,2.4789.3101,2.4789,2.5101v15.425c0,.9165.7436,1.6605,1.6597,1.6605s1.6597-.744,1.6597-1.6605v-15.425c0-5.1534-4.6855-5.8506-5.8592-5.8284-5.8136.1056-5.7984,5.8284-5.7984,5.8284v15.0082c0,.9165.7436,1.6605,1.6597,1.6605s1.6597-.744,1.6597-1.6605"/><path class="cls-1" d="m25.5991,39.8091c.0008-.0012,4.9418-2.5728,9.0408-6.6694,2.8914-2.8898,5.3177-6.5323,5.6056-10.526.0043-.051.0051-.1028.0043-.1535,0,0-.023-1.3902-.5983-2.8081-.4359-1.0731-1.1787-2.135-2.3414-2.7792-2.8715-1.5904-6.3258-.2992-7.6985,2.3574-.4207.8145-.1017,1.8167.7124,2.2366.8137.4207,1.8159.1017,2.2366-.712.5609-1.086,1.9675-1.6274,3.1407-.9781.4553.252.7031.7039.8737,1.1238.2785.6859.3397,1.3602.3525,1.5647-.2645,3.1828-2.3262,6.0196-4.6345,8.3264-3.7312,3.7293-8.2274,6.0726-8.2274,6.0726-.8125.4226-1.1284,1.426-.7054,2.2386.423.8129,1.4264,1.1288,2.239.7062Zm0,0h0"/><path class="cls-1" d="m29.5866,35.5092c1.0907,1.5008,2.6503,3.1909,4.291,4.1133.7985.4495,1.8113.1655,2.2604-.6322.4491-.7989.1655-1.812-.633-2.2608-1.25-.7027-2.4014-2.0282-3.2326-3.1719-.5383-.7409-1.5772-.9052-2.3184-.3681-.7409.5387-.9056,1.5776-.3673,2.3196"/></g></svg>