<?xml version="1.0" encoding="UTF-8"?>
<svg id="Virgo" xmlns="http://www.w3.org/2000/svg" viewBox="0 0 50 50">
  <g id="Sign">
    <path class="cls-1" d="m49.5559,18.9491v-.2679s-.0358-2.4823-1.0715-5.0183c-.768-1.9109-2.1074-3.8039-4.179-4.9647-2.7146-1.5002-5.7149-1.5716-8.3222-.5715C34.7152,1.001,27.6074-.0349,25.6965.0009c-3.5361.0714-5.8578,1.2858-7.3936,2.8752C15.6777.4295,12.0702-.017,10.8022.0009.4798.1973.4441,10.2697.4441,10.4125v26.8062c0,1.6431,1.3215,2.9646,2.9645,2.9646s2.9646-1.3215,2.9646-2.9646V10.4125s.0358-4.3932,4.5361-4.4825c.8929-.0179,4.4291.5536,4.4291,4.4825v27.5563c0,1.6251,1.3215,2.9645,2.9645,2.9645,1.6251,0,2.9645-1.3394,2.9645-2.9645V10.4125s.0179-4.3932,4.5362-4.4825c.8929-.0179,4.429.5536,4.429,4.4825v27.6456c-5.0541,3.9825-9.5723,6.3399-9.5723,6.3399-1.4644.7679-2.0181,2.5538-1.268,4.0004.7502,1.4644,2.5538,2.0181,4.0004,1.268,0,0,3.9468-2.0538,8.7509-5.6077,1.7323,2.0359,3.8397,4.0361,6.0363,5.2684,1.4287.8037,3.2324.3036,4.0361-1.1251s.2857-3.2324-1.143-4.0361c-1.5716-.8929-3.0539-2.3395-4.3218-3.8218.9465-.8036,1.8752-1.6787,2.786-2.5894,5.1612-5.1612,9.5009-11.6619,10.0188-18.8054Zm-13.3941,13.7692V15.1094c1.143-1.5716,3.3753-2.268,5.2684-1.2144.8214.4465,1.2501,1.2501,1.5537,2.0002.5,1.2323.6071,2.4289.6429,2.8039-.4465,5.3041-3.6789,10.0545-7.465,14.0193Z"/>
  </g>
</svg>